<svg width="487" height="95" viewBox="0 0 487 95" fill="none" xmlns="http://www.w3.org/2000/svg">
<g clip-path="url(#clip0)">
<path d="M121.052 55.6669C114.411 55.6669 108.851 53.4277 104.373 48.9494C99.8943 44.4711 97.6552 38.8809 97.6552 32.1787C97.6552 25.5983 99.8943 20.0538 104.373 15.545C108.851 11.0667 114.411 8.82758 121.052 8.82758C127.724 8.82758 133.451 10.9144 138.234 15.088L132.019 21.8969C128.82 19.3988 125.165 18.1497 121.052 18.1497C116.848 18.1802 113.451 19.5054 110.862 22.1254C108.303 24.7149 107.023 28.0355 107.023 32.0873C107.023 36.4437 108.318 39.9015 110.907 42.4605C113.497 45.0195 116.894 46.299 121.098 46.299C124.479 46.299 127.069 45.644 128.866 44.334V36.2914L122.651 36.3371V27.5633H138.234V49.4521C133.482 53.5953 127.754 55.6669 121.052 55.6669ZM155.005 24.4102V27.8832C157.259 25.5983 159.986 24.4559 163.184 24.4559C164.19 24.4559 165.149 24.5321 166.063 24.6844L164.692 33.3211C163.687 32.4072 162.24 31.9197 160.351 31.8588C158.219 32.0111 156.437 33.5496 155.005 36.4742V55.6669H146.277V25.3698L155.005 24.4102ZM185.942 55.9868C181.402 55.9868 177.609 54.4635 174.563 51.4171C171.547 48.3706 170.039 44.593 170.039 40.0842C170.039 35.545 171.547 31.7522 174.563 28.7057C177.609 25.6593 181.402 24.136 185.942 24.136C190.481 24.136 194.274 25.6593 197.32 28.7057C200.367 31.7522 201.89 35.545 201.89 40.0842C201.89 44.6235 200.367 48.4011 197.32 51.4171C194.274 54.4635 190.481 55.9868 185.942 55.9868ZM185.942 48.4468C188.287 48.4468 190.207 47.6395 191.699 46.0248C193.192 44.4407 193.938 42.4605 193.938 40.0842C193.938 37.708 193.192 35.7278 191.699 34.1436C190.207 32.529 188.272 31.7217 185.896 31.7217C183.55 31.7217 181.631 32.529 180.138 34.1436C178.676 35.7278 177.945 37.708 177.945 40.0842C177.945 42.4605 178.676 44.4407 180.138 46.0248C181.631 47.6395 183.565 48.4468 185.942 48.4468ZM226.657 44.6082V24.4102H235.386V55.6669H226.657V52.8337C224.555 54.7225 222.057 55.6669 219.163 55.6669C215.203 55.6669 212.187 54.4635 210.115 52.0568C208.013 49.6501 206.962 46.8931 206.962 43.7857V24.4102H215.736V41.5922C215.736 43.6638 216.254 45.2785 217.29 46.4361C218.325 47.5938 219.894 48.2031 221.996 48.264C223.824 48.1421 225.378 46.9235 226.657 44.6082ZM251.562 68.8276L242.834 68.7819V25.3698L251.562 24.4102V26.9235C253.908 25.248 256.208 24.4102 258.462 24.4102C263.245 24.4102 267.038 25.9791 269.841 29.117C272.674 32.2244 274.091 35.8649 274.091 40.0385C274.091 44.2122 272.674 47.8527 269.841 50.9601C267.038 54.0979 263.245 55.6669 258.462 55.6669C255.325 55.4536 253.025 54.6006 251.562 53.1078V68.8276ZM251.562 37.2053V42.2777C251.989 45.7811 254.182 47.8375 258.143 48.4468C263.139 48.0507 265.957 45.4612 266.596 40.6783C266.383 34.8291 263.565 31.7979 258.143 31.5846C254.182 32.2244 251.989 34.0979 251.562 37.2053ZM294.426 55.9868C289.887 55.9868 286.109 54.4635 283.093 51.4171C280.047 48.3706 278.523 44.593 278.523 40.0842C278.523 35.545 280.047 31.7522 283.093 28.7057C286.109 25.6593 289.887 24.136 294.426 24.136C298.965 24.136 302.758 25.6593 305.804 28.7057C308.851 31.7522 310.374 35.545 310.374 40.0842C310.374 44.6235 308.851 48.4011 305.804 51.4171C302.758 54.4635 298.965 55.9868 294.426 55.9868ZM294.426 48.4468C296.802 48.4468 298.721 47.6395 300.184 46.0248C301.676 44.4407 302.423 42.4605 302.423 40.0842C302.423 37.708 301.676 35.7278 300.184 34.1436C298.721 32.529 296.787 31.7217 294.38 31.7217C292.034 31.7217 290.115 32.529 288.622 34.1436C287.16 35.7278 286.429 37.708 286.429 40.0842C286.429 42.4605 287.16 44.4407 288.622 46.0248C290.115 47.6395 292.05 48.4468 294.426 48.4468ZM324.951 35.6973V55.6669H316.178V25.3698L324.951 24.4102V27.1977C326.901 25.3698 329.399 24.4559 332.446 24.4559C336.376 24.4559 339.392 25.644 341.494 28.0203C343.779 25.644 347.206 24.4559 351.775 24.4559C355.736 24.4559 358.767 25.644 360.869 28.0203C362.941 30.427 363.977 33.1992 363.977 36.3371V55.6669H355.248V38.4848C355.248 36.4133 354.776 34.7986 353.832 33.641C352.887 32.5138 351.364 31.9197 349.262 31.8588C347.526 31.9807 346.033 33.1231 344.784 35.2861C344.662 35.9258 344.601 36.5808 344.601 37.251V55.6669H335.873V38.4848C335.873 36.4133 335.401 34.7986 334.456 33.641C333.512 32.5138 331.989 31.9197 329.887 31.8588C327.967 31.9807 326.322 33.2602 324.951 35.6973ZM375.721 33.5039L372.293 28.2031C376.254 25.705 380.839 24.4559 386.048 24.4559C389.795 24.4559 392.75 25.4917 394.913 27.5633C397.107 29.6654 398.203 32.788 398.203 36.9312V55.6669H389.475V53.1992C386.916 54.8443 384.616 55.6669 382.575 55.6669C378.432 55.6669 375.309 54.7834 373.207 53.0165C371.136 51.2495 370.1 48.8123 370.1 45.705C370.1 42.7804 371.09 40.1756 373.07 37.8908C375.02 35.6059 378.188 34.4635 382.575 34.4635C384.616 34.4635 386.916 35.088 389.475 36.3371V35.3775C389.414 33.0926 387.739 31.8436 384.449 31.6303C380.702 31.6303 377.792 32.2548 375.721 33.5039ZM389.475 46.299V42.7804C388.653 41.1657 386.673 40.3584 383.535 40.3584C379.788 40.7849 377.807 42.2472 377.594 44.7453C377.807 47.213 379.788 48.5534 383.535 48.7666C386.673 48.7666 388.653 47.9441 389.475 46.299ZM414.792 35.8344V55.6669H406.018V25.3698L414.792 24.4102V27.2434C416.894 25.3851 419.392 24.4559 422.286 24.4559C426.246 24.4559 429.262 25.644 431.334 28.0203C433.405 30.427 434.441 33.1992 434.441 36.3371V55.6669H425.713V38.4848C425.713 36.4133 425.195 34.7986 424.159 33.641C423.093 32.5138 421.509 31.9197 419.407 31.8588C417.609 31.9807 416.071 33.3059 414.792 35.8344ZM450.526 55.6669H441.798V24.4102H450.526V55.6669ZM441.478 16.9616C441.478 18.2107 441.89 19.2465 442.712 20.069C443.565 20.8916 444.723 21.3028 446.185 21.3028C447.617 21.3028 448.759 20.8916 449.612 20.069C450.435 19.2465 450.846 18.2107 450.846 16.9616C450.846 15.7126 450.435 14.6615 449.612 13.8085C448.759 12.9555 447.587 12.529 446.094 12.529C444.692 12.529 443.565 12.9555 442.712 13.8085C441.89 14.6615 441.478 15.7126 441.478 16.9616ZM462.179 33.5039L458.752 28.2031C462.712 25.705 467.297 24.4559 472.507 24.4559C476.254 24.4559 479.224 25.4917 481.418 27.5633C483.581 29.6654 484.662 32.788 484.662 36.9312V55.6669H475.934V53.1992C473.405 54.8443 471.121 55.6669 469.079 55.6669C464.906 55.6669 461.783 54.7834 459.711 53.0165C457.609 51.2495 456.558 48.8123 456.558 45.705C456.558 42.7804 457.549 40.1756 459.529 37.8908C461.478 35.6059 464.662 34.4635 469.079 34.4635C471.09 34.4635 473.375 35.088 475.934 36.3371V35.3775C475.903 33.0926 474.243 31.8436 470.953 31.6303C467.206 31.6303 464.281 32.2548 462.179 33.5039ZM475.934 46.299V42.7804C475.111 41.1657 473.131 40.3584 469.993 40.3584C466.246 40.7849 464.266 42.2472 464.053 44.7453C464.266 47.213 466.246 48.5534 469.993 48.7666C473.131 48.7666 475.111 47.9441 475.934 46.299Z" fill="black"/>
<path d="M39.2 78.0275C49.6036 78.0275 59.3569 74.0333 66.6951 66.6951C74.0333 59.3569 78.0276 49.6035 78.0276 39.2C78.0276 28.7964 74.0333 19.0431 66.6951 11.7049C59.3569 4.36663 49.6036 0.372406 39.2 0.372406C28.7964 0.372406 19.0431 4.36663 11.7049 11.7049C4.36666 19.0431 0.372437 28.7964 0.372437 39.2C0.372437 49.6035 4.36666 59.3569 11.7049 66.6951C19.0431 74.0333 28.7964 78.0275 39.2 78.0275ZM41.4293 71.4324C40.6862 71.5253 39.9431 71.5253 39.2 71.5253C38.1782 71.5253 37.1564 71.4324 36.1347 71.3395C32.7907 66.1378 30.2827 60.5644 28.7964 54.7124H45.2378C45.7951 56.1058 46.8169 57.4062 48.0244 58.2422C46.4453 62.8866 44.216 67.2524 41.4293 71.4324ZM50.2538 69.5747C52.0187 66.3235 53.412 63.0724 54.5267 59.6355C57.2205 59.0782 59.3569 57.2204 60.3787 54.7124H67.5311C63.8156 61.4933 57.592 66.788 50.2538 69.5747ZM71.4324 39.2C71.4324 42.2653 70.968 45.2378 70.2249 48.1173H60.1929C59.6356 46.9098 58.7067 45.7951 57.592 44.9591C57.7778 42.9155 57.8707 40.872 57.8707 38.8284C57.8707 35.9489 57.6849 33.0693 57.3133 30.2826H70.132C71.0609 33.0693 71.4324 36.1346 71.4324 39.2ZM67.5311 23.6875H56.1987C54.9911 18.5786 53.2262 13.7484 50.8111 9.10397C57.8707 11.7978 63.8156 17.0924 67.5311 23.6875ZM51.3685 38.8284C51.3685 40.4075 51.2756 41.9867 51.1827 43.5658C48.5818 44.1231 46.4453 45.7951 45.4236 48.1173H27.496C27.1244 45.3306 26.8458 42.4511 26.8458 39.6644C26.8458 37.8995 26.9387 36.1346 27.1244 34.3698C29.5396 33.9053 31.4902 32.3262 32.6978 30.2826H50.8111C51.1827 33.0693 51.3685 35.9489 51.3685 38.8284ZM36.7849 7.0604C37.6209 6.96752 38.4569 6.96752 39.2 6.96752C40.1289 6.96752 41.0578 6.96752 41.9867 7.0604C45.3307 12.2622 47.8387 17.8355 49.3249 23.6875H33.1622C32.6049 22.1084 31.5831 20.7151 30.2827 19.6933C31.9547 15.2346 34.0911 11.0546 36.7849 7.0604ZM27.9604 8.91818C26.3813 11.8906 24.988 15.0489 23.8733 18.2071C20.9938 18.7644 18.6715 20.9009 17.7427 23.5946H10.9618C14.5844 16.9995 20.6222 11.7049 27.9604 8.91818ZM6.96755 39.2C6.96755 36.1346 7.43199 33.0693 8.26799 30.2826H18.3929C18.9502 31.3044 19.7862 32.2333 20.7151 32.9764C20.5293 35.2058 20.3436 37.4351 20.3436 39.6644C20.3436 42.544 20.5293 45.3306 20.9009 48.1173H8.26799C7.3391 45.2378 6.96755 42.2653 6.96755 39.2ZM22.0156 54.6195C23.2231 59.6355 24.988 64.5586 27.4031 69.2031C20.3436 66.4164 14.4916 61.2146 10.8689 54.6195H22.0156Z" fill="black"/>
</g>
<path d="M380.383 69.9401V75.0074H388.424V77.6243H380.383V84H377.291V67.347H389.447V69.9401H380.383ZM404.104 71.2961V84H401.273V82.3823C400.797 82.9532 400.202 83.3973 399.488 83.7145C398.775 84.0159 398.005 84.1665 397.181 84.1665C395.484 84.1665 394.144 83.6987 393.16 82.7629C392.193 81.8113 391.709 80.4077 391.709 78.5521V71.2961H394.683V78.1477C394.683 79.2896 394.937 80.146 395.444 80.717C395.967 81.2721 396.705 81.5496 397.657 81.5496C398.719 81.5496 399.56 81.2245 400.178 80.5742C400.813 79.9081 401.13 78.9565 401.13 77.7194V71.2961H404.104ZM415.206 71.1534C416.807 71.1534 418.092 71.6213 419.06 72.557C420.027 73.4927 420.511 74.8805 420.511 76.7203V84H417.537V77.1009C417.537 75.9907 417.275 75.158 416.752 74.6029C416.229 74.032 415.483 73.7465 414.516 73.7465C413.421 73.7465 412.557 74.0796 411.923 74.7457C411.288 75.3959 410.971 76.3396 410.971 77.5767V84H407.997V71.2961H410.828V72.9376C411.32 72.3508 411.938 71.9067 412.684 71.6054C413.429 71.3041 414.27 71.1534 415.206 71.1534ZM431.42 67.347C432.863 67.347 434.116 67.5849 435.179 68.0607C436.257 68.5365 437.082 69.2185 437.653 70.1066C438.224 70.9948 438.51 72.0495 438.51 73.2707C438.51 74.4761 438.224 75.5308 437.653 76.4348C437.082 77.3229 436.257 78.0049 435.179 78.4807C434.116 78.9565 432.863 79.1944 431.42 79.1944H427.661V84H424.569V67.347H431.42ZM431.277 76.5775C432.625 76.5775 433.648 76.292 434.346 75.7211C435.044 75.1501 435.393 74.3333 435.393 73.2707C435.393 72.2081 435.044 71.3913 434.346 70.8203C433.648 70.2494 432.625 69.9639 431.277 69.9639H427.661V76.5775H431.277ZM441.196 71.2961H444.17V84H441.196V71.2961ZM442.695 69.2026C442.156 69.2026 441.704 69.0361 441.339 68.703C440.974 68.3541 440.792 67.9259 440.792 67.4184C440.792 66.9108 440.974 66.4906 441.339 66.1575C441.704 65.8086 442.156 65.6341 442.695 65.6341C443.234 65.6341 443.686 65.8006 444.051 66.1337C444.416 66.4509 444.598 66.8553 444.598 67.347C444.598 67.8704 444.416 68.3145 444.051 68.6792C443.702 69.0282 443.25 69.2026 442.695 69.2026ZM453.902 84.1665C452.585 84.1665 451.404 83.889 450.357 83.3339C449.31 82.7788 448.493 82.0096 447.907 81.0262C447.32 80.0271 447.026 78.901 447.026 77.6481C447.026 76.3951 447.32 75.277 447.907 74.2937C448.493 73.3104 449.302 72.5411 450.333 71.986C451.38 71.4309 452.569 71.1534 453.902 71.1534C455.155 71.1534 456.249 71.4072 457.185 71.9147C458.136 72.4222 458.85 73.1518 459.326 74.1034L457.042 75.4356C456.677 74.8488 456.217 74.4126 455.662 74.1271C455.123 73.8258 454.528 73.6751 453.878 73.6751C452.768 73.6751 451.848 74.0399 451.118 74.7695C450.389 75.4832 450.024 76.4427 450.024 77.6481C450.024 78.8534 450.381 79.8209 451.094 80.5504C451.824 81.2641 452.752 81.621 453.878 81.621C454.528 81.621 455.123 81.4783 455.662 81.1928C456.217 80.8914 456.677 80.4474 457.042 79.8605L459.326 81.1928C458.834 82.1444 458.113 82.8819 457.161 83.4052C456.225 83.9128 455.139 84.1665 453.902 84.1665Z" fill="#CF525D"/>
<path d="M482 66H468C466.895 66 466 66.8954 466 68V82C466 83.1046 466.895 84 468 84H482C483.105 84 484 83.1046 484 82V68C484 66.8954 483.105 66 482 66Z" stroke="#111111" stroke-width="2" stroke-linecap="round" stroke-linejoin="round"/>
<path d="M471.5 73C472.328 73 473 72.3284 473 71.5C473 70.6716 472.328 70 471.5 70C470.672 70 470 70.6716 470 71.5C470 72.3284 470.672 73 471.5 73Z" stroke="#111111" stroke-width="2" stroke-linecap="round" stroke-linejoin="round"/>
<path d="M484 78L479 73L468 84" stroke="#111111" stroke-width="2" stroke-linecap="round" stroke-linejoin="round"/>
<defs>
<clipPath id="clip0">
<rect width="485" height="78" fill="white"/>
</clipPath>
</defs>
</svg>
