<svg width="65" height="65" viewBox="0 0 65 65" fill="none" xmlns="http://www.w3.org/2000/svg">
<path d="M32.2294 64.2292C40.8036 64.2292 48.8419 60.9374 54.8897 54.8895C60.9376 48.8417 64.2294 40.8034 64.2294 32.2293C64.2294 23.6551 60.9376 15.6168 54.8897 9.56896C48.8419 3.52111 40.8036 0.229248 32.2294 0.229248C23.6553 0.229248 15.617 3.52111 9.56914 9.56896C3.52129 15.6168 0.229431 23.6551 0.229431 32.2293C0.229431 40.8034 3.52129 48.8417 9.56914 54.8895C15.617 60.9374 23.6553 64.2292 32.2294 64.2292ZM34.0667 58.7939C33.4543 58.8704 32.8419 58.8704 32.2294 58.8704C31.3873 58.8704 30.5452 58.7939 29.7031 58.7173C26.9471 54.4302 24.8802 49.8369 23.6553 45.014H37.2055C37.6648 46.1623 38.5069 47.234 39.5022 47.923C38.2007 51.7508 36.3634 55.3489 34.0667 58.7939V58.7939ZM41.3395 57.2628C42.794 54.5833 43.9423 51.9039 44.861 49.0714C47.0811 48.612 48.8419 47.0809 49.684 45.014H55.5787C52.5165 50.6025 47.3873 54.9661 41.3395 57.2628ZM58.794 32.2293C58.794 34.7556 58.4112 37.2053 57.7988 39.5785H49.5309C49.0715 38.5833 48.306 37.6647 47.3873 36.9757C47.5404 35.2915 47.617 33.6072 47.617 31.923C47.617 29.5498 47.4639 27.1766 47.1577 24.88H57.7223C58.4878 27.1766 58.794 29.7029 58.794 32.2293V32.2293ZM55.5787 19.4446H46.239C45.2438 15.234 43.7892 11.2532 41.7988 7.42543C47.617 9.64552 52.5165 14.0092 55.5787 19.4446ZM42.2581 31.923C42.2581 33.2245 42.1816 34.5259 42.105 35.8273C39.9615 36.2867 38.2007 37.6647 37.3586 39.5785H22.5835C22.2773 37.2819 22.0476 34.9087 22.0476 32.612C22.0476 31.1575 22.1242 29.7029 22.2773 28.2484C24.2677 27.8656 25.8754 26.5642 26.8706 24.88H41.7988C42.105 27.1766 42.2581 29.5498 42.2581 31.923V31.923ZM30.239 5.74121C30.928 5.66465 31.617 5.66466 32.2294 5.66466C32.995 5.66466 33.7605 5.66465 34.5261 5.74121C37.2821 10.0283 39.349 14.6216 40.5739 19.4446H27.2534C26.794 18.1431 25.9519 16.9948 24.8801 16.1527C26.2581 12.4781 28.0189 9.03307 30.239 5.74121ZM22.9663 7.27231C21.6648 9.72207 20.5165 12.3249 19.5979 14.9278C17.2246 15.3871 15.3108 17.1479 14.5452 19.368H8.95671C11.9424 13.9326 16.9184 9.56896 22.9663 7.27231ZM5.66484 32.2293C5.66484 29.7029 6.04761 27.1766 6.73661 24.88H15.0811C15.5404 25.7221 16.2294 26.4876 16.995 27.1001C16.8419 28.9374 16.6888 30.7747 16.6888 32.612C16.6888 34.9852 16.8419 37.2819 17.1481 39.5785H6.73661C5.97106 37.2053 5.66484 34.7556 5.66484 32.2293ZM18.0668 44.9374C19.062 49.0714 20.5165 53.1288 22.5069 56.9565C16.6888 54.6599 11.8658 50.3728 8.88015 44.9374H18.0668Z" fill="black"/>
</svg>
