<svg width="100" height="101" viewBox="0 0 100 101" fill="none" xmlns="http://www.w3.org/2000/svg">
<g clip-path="url(#clip0)">
<circle cx="50" cy="50.2202" r="50" fill="#EEEEEE"/>
<mask id="path-2-inside-1" fill="white">
<path fill-rule="evenodd" clip-rule="evenodd" d="M12.5 83.293V81.4702C12.5 69.0014 37.4844 62.7202 50 62.7202C62.5156 62.7202 87.5 69.0014 87.5 81.4702V83.293C78.3382 93.6732 64.9337 100.22 50 100.22C35.0663 100.22 21.6618 93.6732 12.5 83.293ZM50 21.0535C39.6406 21.0535 31.25 29.4441 31.25 39.8035C31.25 50.1629 39.6406 58.5535 50 58.5535C60.3594 58.5535 68.75 50.1629 68.75 39.8035C68.75 29.4441 60.3594 21.0535 50 21.0535Z"/>
</mask>
<path fill-rule="evenodd" clip-rule="evenodd" d="M12.5 83.293V81.4702C12.5 69.0014 37.4844 62.7202 50 62.7202C62.5156 62.7202 87.5 69.0014 87.5 81.4702V83.293C78.3382 93.6732 64.9337 100.22 50 100.22C35.0663 100.22 21.6618 93.6732 12.5 83.293ZM50 21.0535C39.6406 21.0535 31.25 29.4441 31.25 39.8035C31.25 50.1629 39.6406 58.5535 50 58.5535C60.3594 58.5535 68.75 50.1629 68.75 39.8035C68.75 29.4441 60.3594 21.0535 50 21.0535Z" fill="#EEEEEE"/>
<path d="M12.5 83.293H10.5V84.0494L11.0005 84.6165L12.5 83.293ZM87.5 83.293L88.9995 84.6165L89.5 84.0494V83.293H87.5ZM14.5 83.293V81.4702H10.5V83.293H14.5ZM14.5 81.4702C14.5 79.0876 15.6777 76.8525 17.9558 74.7499C20.2476 72.6348 23.5172 70.7915 27.3004 69.276C34.87 66.2436 43.9922 64.7202 50 64.7202V60.7202C43.4922 60.7202 33.8643 62.3374 25.8129 65.5628C21.7856 67.1762 18.0269 69.2411 15.2429 71.8105C12.4454 74.3925 10.5 77.6184 10.5 81.4702H14.5ZM50 64.7202C56.0078 64.7202 65.13 66.2436 72.6996 69.276C76.4828 70.7915 79.7524 72.6348 82.0442 74.7499C84.3223 76.8525 85.5 79.0876 85.5 81.4702H89.5C89.5 77.6184 87.5546 74.3925 84.7571 71.8105C81.9731 69.2411 78.2144 67.1762 74.1871 65.5628C66.1357 62.3374 56.5078 60.7202 50 60.7202V64.7202ZM85.5 81.4702V83.293H89.5V81.4702H85.5ZM86.0005 81.9695C77.2023 91.9379 64.336 98.2202 50 98.2202V102.22C65.5313 102.22 79.4741 95.4086 88.9995 84.6165L86.0005 81.9695ZM50 98.2202C35.664 98.2202 22.7977 91.9379 13.9995 81.9695L11.0005 84.6165C20.5259 95.4086 34.4687 102.22 50 102.22V98.2202ZM33.25 39.8035C33.25 30.5487 40.7452 23.0535 50 23.0535V19.0535C38.5361 19.0535 29.25 28.3396 29.25 39.8035H33.25ZM50 56.5535C40.7452 56.5535 33.25 49.0583 33.25 39.8035H29.25C29.25 51.2675 38.5361 60.5535 50 60.5535V56.5535ZM66.75 39.8035C66.75 49.0583 59.2548 56.5535 50 56.5535V60.5535C61.4639 60.5535 70.75 51.2675 70.75 39.8035H66.75ZM50 23.0535C59.2548 23.0535 66.75 30.5487 66.75 39.8035H70.75C70.75 28.3396 61.4639 19.0535 50 19.0535V23.0535Z" fill="#AAAAAA" mask="url(#path-2-inside-1)"/>
</g>
<defs>
<clipPath id="clip0">
<rect width="100" height="100" fill="white" transform="translate(0 0.220184)"/>
</clipPath>
</defs>
</svg>
